# xmcd
#
# Track frame offsets:
#	150
#	23068
#	35414
#	60376
#	97214
#	115142
#	134920
#	152752
#	175287
#	199028
#	219716
#
# Disc length: 3153 seconds
#
# Revision: 3
# Processed by: cddbd v1.4PL0 Copyright (c) Steve Scherf et al.
# Submitted via: CDmax 2.0
#
DISCID=9f0c4f0b
DTITLE=Screamin' Jay Hawkins - Don't Fool With Me
DYEAR=1999
DGENRE=Blues
TTITLE0=Live Love or Die
TTITLE1=Because of You
TTITLE2=Don't Fool With Me
TTITLE3=Furburger
TTITLE4=Cookie Time
TTITLE5=The Rose
TTITLE6=Tear Drops
TTITLE7=Bushman Tucker
TTITLE8=In My Heart
TTITLE9=Rockin' Away
TTITLE10=Rock Australia Rock
EXTD=LABEL =Selected Sound Carrier - JM Sontel AG\nID =3445.2097-2\nUPC =76
EXTD=19929-375828\nCOPYRIGHT =1999
EXTT0=
EXTT1=
EXTT2=
EXTT3=
EXTT4=
EXTT5=
EXTT6=
EXTT7=
EXTT8=not listed on track listing
EXTT9=
EXTT10=
PLAYORDER=
